<?xml version="1.0" standalone="no"?>
<!DOCTYPE svg PUBLIC "-//W3C//DTD SVG 20010904//EN"
 "http://www.w3.org/TR/2001/REC-SVG-20010904/DTD/svg10.dtd">
<svg version="1.0" xmlns="http://www.w3.org/2000/svg"
 width="700.000000pt" height="700.000000pt" viewBox="0 0 700.000000 700.000000"
 preserveAspectRatio="xMidYMid meet">
<metadata>
Created by potrace 1.14, written by Peter Selinger 2001-2017
</metadata>
<g transform="translate(0.000000,700.000000) scale(0.100000,-0.100000)"
fill="#000000" stroke="none">
<path d="M1838 6565 c-1 -1 -39 -6 -82 -10 -313 -27 -620 -235 -767 -520 -223
-428 -107 -948 275 -1239 64 -49 170 -109 240 -136 l26 -10 1 -222 c1 -281 7
-342 51 -473 109 -323 361 -554 703 -646 84 -23 53 -22 853 -29 l32 0 0 -465
0 -465 -27 -11 c-112 -41 -237 -123 -334 -219 -294 -291 -376 -735 -203 -1109
252 -546 937 -742 1434 -410 466 311 583 914 268 1382 -52 78 -175 200 -251
251 -65 43 -175 100 -207 109 -20 5 -20 8 -18 472 l3 466 370 1 c388 1 453 6
582 48 352 114 626 437 669 790 4 30 8 62 10 70 1 8 3 115 3 238 l1 222 26 10
c46 18 139 65 142 73 2 4 9 7 15 7 19 0 153 108 208 168 60 65 141 185 170
252 11 25 24 54 29 65 5 11 18 53 29 93 111 410 -52 843 -405 1078 -480 320
-1126 161 -1408 -347 -154 -278 -158 -628 -11 -919 98 -194 287 -371 485 -455
25 -10 49 -22 53 -26 13 -10 10 -419 -3 -470 -27 -103 -108 -187 -215 -224
-46 -16 -128 -17 -1085 -17 -951 0 -1039 1 -1084 17 -70 24 -121 61 -161 115
-61 83 -66 110 -67 353 0 120 3 222 8 226 5 4 34 18 64 31 143 62 302 191 397
320 54 74 127 228 152 320 55 206 42 429 -37 625 -136 340 -472 588 -827 611
-44 3 -85 7 -92 9 -6 2 -13 2 -15 0z m102 -670 c77 -16 173 -91 210 -165 26
-53 41 -129 35 -185 -8 -76 -60 -171 -122 -222 -65 -52 -115 -68 -214 -67 -63
0 -85 5 -133 29 -88 44 -151 122 -175 215 -14 57 -4 156 21 212 67 145 216
218 378 183z m3296 -4 c126 -34 225 -162 230 -299 9 -216 -189 -381 -397 -332
-250 59 -339 363 -161 546 84 87 205 118 328 85z m-1602 -4171 c212 -96 258
-373 89 -536 -121 -118 -330 -115 -450 4 -70 70 -98 138 -97 237 0 69 5 88 31
140 46 88 123 153 209 174 58 15 165 6 218 -19z"/>
</g>
</svg>
